# xmcd
#
# Track frame offsets:
#	150
#	13093
#	24253
#	34413
#	45305
#	55213
#	67454
#	78723
#	90295
#	99602
#	111054
#	121870
#	131670
#	141751
#	152460
#	162951
#	172910
#	185972
#	197505
#	208231
#
# Disc length: 2930
#
# Revision: 1
# Processed by: cddbd v1.5.1PL0 Copyright (c) Steve Scherf et al.
# Submitted via: dBpowerAMP V4.0
# Normalized: r0:TDELIM( - )
#
DISCID=130b7014
DTITLE=Various Artist - Roots of Rock n Roll
DYEAR=1900
DGENRE=Rock n Roll
TTITLE0=Big Mama Thornton - Hound Dog
TTITLE1=Ella Mae Morse - Okie Boogie
TTITLE2=Jimmy Bryant and Speedy West - Pickin The Chicken
TTITLE3=Bobby Bland - Good Lovin'
TTITLE4=Little Richard - Ain't Nothing Happening
TTITLE5=Cowboy Copas - Feelin Low
TTITLE6=Tennessse Ernie Ford - Blackberry Boogie
TTITLE7=Jimmy Witherspoon - Two Little Girl
TTITLE8=Percy Mayflied - Louisiana
TTITLE9=Douglas Lewis - Ice Worm Boogie
TTITLE10=Ray Price - Move On In and Stay
TTITLE11=Marvin Phillips and His Men From Mars - Wine Wine Woogie
TTITLE12=Bull Moose Jackson - Big Ten Inch
TTITLE13=Slim Willet - Rig Movin Man
TTITLE14=Charlie Adams - TT Boogie
TTITLE15=Guitar Slim - Certainly All
TTITLE16=Chuck Higgins - Pachuko Hop
TTITLE17=Ramblin' Jimmie Dolan - Hot Rod Mama
TTITLE18=Tucker Coles - House Rockers Jamboree
TTITLE19=Joe Liggins - Dripper's Boogie
EXTD=
EXTT0=
EXTT1=
EXTT2=
EXTT3=
EXTT4=
EXTT5=
EXTT6=
EXTT7=
EXTT8=
EXTT9=
EXTT10=
EXTT11=
EXTT12=
EXTT13=
EXTT14=
EXTT15=
EXTT16=
EXTT17=
EXTT18=
EXTT19=
PLAYORDER=
